<svg width="44" height="44" fill="none" xmlns="http://www.w3.org/2000/svg"><g clip-path="url(#a)"><path d="M10.196 18.149a12.385 12.385 0 0 1 11.74-8.558 12.14 12.14 0 0 1 7.746 2.728l6.077-6.14C32.02 2.952 27.237.973 21.891 1a20.945 20.945 0 0 0-18.77 11.735l7.075 5.414Z" fill="#EA4335"/><path d="M29.125 32.485c-1.9 1.242-4.32 1.91-7.061 1.924a12.385 12.385 0 0 1-11.809-8.38l-7.041 5.404A20.938 20.938 0 0 0 22.108 43c5.133-.027 10.028-1.877 13.683-5.322l-6.666-5.193Z" fill="#34A853"/><path d="M35.79 37.678c3.824-3.603 6.29-8.95 6.255-15.782-.006-1.24-.204-2.576-.497-3.815l-19.568.1.042 8.114 11.264-.058c-.542 2.731-2.023 4.852-4.16 6.248l6.665 5.193Z" fill="#4A90E2"/><path d="M10.255 26.03a12.46 12.46 0 0 1-.664-3.966 12.462 12.462 0 0 1 .605-3.915l-7.074-5.414C1.73 15.56.982 18.74 1 22.108c.017 3.36.812 6.524 2.214 9.325l7.041-5.404Z" fill="#FBBC05"/></g><defs><clipPath id="a"><path fill="#fff" transform="rotate(-.296 214.992 -171.972)" d="M0 0h42v42H0z"/></clipPath></defs></svg>