<svg width="44" height="44" viewBox="0 0 44 44" fill="none" xmlns="http://www.w3.org/2000/svg">
<g clip-path="url(#clip0_200_20)">
<path d="M10.1957 18.1488C11.8021 13.1951 16.4311 9.61947 21.9357 9.59102C24.8948 9.57573 27.5729 10.6119 29.6818 12.3192L35.7592 6.17862C32.0198 2.95245 27.2367 0.972598 21.8914 1.00022C13.6141 1.043 6.51202 5.80179 3.12173 12.7349L10.1957 18.1488Z" fill="#EA4335"/>
<path d="M29.1254 32.4853C27.2246 33.7267 24.8046 34.3947 22.064 34.4089C16.5804 34.4372 11.9293 30.9367 10.2552 26.0295L3.2139 31.4334C6.67147 38.3433 13.8222 43.0425 22.1084 42.9997C27.2408 42.9732 32.1357 41.1233 35.7909 37.6782L29.1254 32.4853Z" fill="#34A853"/>
<path d="M35.7909 37.6782C39.6135 34.0753 42.0803 28.7277 42.045 21.8964C42.0386 20.6555 41.8408 19.3201 41.548 18.0807L21.9801 18.1818L22.022 26.2954L33.2855 26.2371C32.7438 28.9684 31.263 31.0893 29.1254 32.4853L35.7909 37.6782Z" fill="#4A90E2"/>
<path d="M10.2552 26.0295C9.83113 24.7864 9.59808 23.4531 9.5909 22.0641C9.58383 20.6961 9.79639 19.3799 10.1956 18.1488L3.12167 12.7349C1.7303 15.5604 0.982699 18.7405 1.00011 22.1085C1.01747 25.4677 1.8122 28.6322 3.21388 31.4334L10.2552 26.0295Z" fill="#FBBC05"/>
</g>
<defs>
<clipPath id="clip0_200_20">
<rect width="42" height="42" fill="white" transform="translate(0.891602 1.10876) rotate(-0.2961)"/>
</clipPath>
</defs>
</svg>
