<svg width="36" height="36" fill="none" xmlns="http://www.w3.org/2000/svg"><path d="M18 23.625c1.775 0 3.281-.619 4.519-1.856 1.237-1.238 1.856-2.744 1.856-4.519s-.619-3.281-1.856-4.519c-1.238-1.237-2.744-1.856-4.519-1.856s-3.281.619-4.519 1.856c-1.237 1.238-1.856 2.744-1.856 4.519s.619 3.281 1.856 4.519c1.238 1.237 2.744 1.856 4.519 1.856Zm0-2.175c-1.175 0-2.169-.406-2.981-1.219-.813-.812-1.219-1.806-1.219-2.981 0-1.175.406-2.169 1.219-2.981.812-.813 1.806-1.219 2.981-1.219 1.175 0 2.169.406 2.981 1.219.813.812 1.219 1.806 1.219 2.981 0 1.175-.406 2.169-1.219 2.981-.812.813-1.806 1.219-2.981 1.219Zm0 7.05c-3.65 0-6.95-1.038-9.9-3.113S2.95 20.6 1.5 17.25c1.45-3.35 3.65-6.063 6.6-8.137C11.05 7.038 14.35 6 18 6c3.65 0 6.95 1.037 9.9 3.113 2.95 2.075 5.15 4.787 6.6 8.137-1.45 3.35-3.65 6.063-6.6 8.137-2.95 2.075-6.25 3.113-9.9 3.113Zm0-2.25c3.025 0 5.806-.819 8.344-2.456 2.537-1.638 4.468-3.819 5.794-6.544-1.325-2.725-3.257-4.906-5.794-6.544C23.806 9.07 21.025 8.25 18 8.25c-3.025 0-5.806.819-8.344 2.456-2.537 1.638-4.481 3.819-5.831 6.544 1.35 2.725 3.294 4.906 5.831 6.544C12.194 25.43 14.975 26.25 18 26.25Z" fill="#E9E8E8"/></svg>