<svg width="135" height="132" fill="none" xmlns="http://www.w3.org/2000/svg"><g clip-path="url(#a)"><path d="m49.447 53.566 8.92-22.498 23.945-3.524L97.335 46.52l-8.92 22.498-23.944 3.524-15.024-18.975Z" fill="#E9E8E8" fill-opacity=".8"/></g><g clip-path="url(#b)"><path d="m18.967 77.935 8.92-22.498 23.946-3.524 15.023 18.975-8.92 22.498L33.99 96.91 18.967 77.935Z" fill="#E9E8E8" fill-opacity=".8"/></g><g clip-path="url(#c)"><path d="m54.968 92.2 8.92-22.499 23.946-3.524 15.022 18.975-8.92 22.498-23.944 3.524-15.024-18.975Z" fill="#E9E8E8" fill-opacity=".8"/></g><defs><clipPath id="a"><path fill="#fff" transform="rotate(-8.371 225.34 -298.936)" d="M0 0h48.404v48.404H0z"/></clipPath><clipPath id="b"><path fill="#fff" transform="rotate(-8.371 376.588 -78.516)" d="M0 0h48.404v48.404H0z"/></clipPath><clipPath id="c"><path fill="#fff" transform="rotate(-8.371 492.04 -317.34)" d="M0 0h48.404v48.404H0z"/></clipPath></defs></svg>