<svg width="115" height="24" fill="none" xmlns="http://www.w3.org/2000/svg"><path d="m96.492 22 2.325-7.6-6.15-4.4h7.6l2.4-8 2.4 8h7.6l-6.15 4.4 2.325 7.6-6.175-4.7-6.175 4.7Zm2.75-4.075 3.425-2.6 3.425 2.6-1.375-4.325 3.15-2.05h-3.775l-1.425-4.325-1.425 4.325h-3.775l3.15 2.05-1.375 4.325ZM73.825 22l2.325-7.6L70 10h7.6L80 2l2.4 8H90l-6.15 4.4 2.325 7.6L80 17.3 73.825 22Zm2.75-4.075 3.425-2.6 3.425 2.6L82.05 13.6l3.15-2.05h-3.775L80 7.225l-1.425 4.325H74.8l3.15 2.05-1.375 4.325Z" fill="#FDA916"/><path d="M80 9.333c-2.133 5.334-.889 4 0 2.667l.667.667-3.195 4.26M86 12l-8.528 4.927M86 12l-4.666-.274M86 12c.534.031-2.889.013-4.666 0l.666.667.667.666m-5.195 3.594L76.667 18l2-4.667-4-2 6.667.393M80 7.333l.667 4-1.333-2.666 4 9.333-4-4.667-2-2L82 14.667 84 12l-2.666-.274" stroke="#FDA916"/><path d="m51.158 22 2.325-7.6-6.15-4.4h7.6l2.4-8 2.4 8h7.6l-6.15 4.4 2.325 7.6-6.175-4.7-6.175 4.7Zm2.75-4.075 3.425-2.6 3.425 2.6-1.375-4.325 3.15-2.05h-3.775l-1.425-4.325-1.425 4.325h-3.775l3.15 2.05-1.375 4.325Z" fill="#FDA916"/><path d="M57.333 9.333c-2.133 5.334-.889 4 0 2.667l.667.667-3.195 4.26M63.333 12l-8.528 4.927M63.333 12l-4.666-.274m4.666.274c.534.031-2.889.013-4.666 0l.666.667.667.666m-5.195 3.594L54 18l2-4.667-4-2 6.667.393m-1.334-4.393.667 4-1.333-2.666 4 9.333-4-4.667-2-2 4.666 3.334 2-2.667-2.666-.274" stroke="#FDA916"/><path d="m28.492 22 2.325-7.6-6.15-4.4h7.6l2.4-8 2.4 8h7.6l-6.15 4.4 2.325 7.6-6.175-4.7-6.175 4.7Zm2.75-4.075 3.425-2.6 3.425 2.6-1.375-4.325 3.15-2.05h-3.775l-1.425-4.325-1.425 4.325h-3.775l3.15 2.05-1.375 4.325Z" fill="#FDA916"/><path d="M34.667 9.333c-2.133 5.334-.889 4 0 2.667l.667.667-3.195 4.26M40.667 12l-8.528 4.927M40.667 12l-4.666-.274m4.666.274c.534.031-2.889.013-4.666 0l.666.667.667.666m-5.195 3.594L31.334 18l2-4.667-4-2 6.667.393m-1.334-4.393.667 4-1.333-2.666L38 18l-4-4.667-2-2 4.666 3.334 2-2.667-2.666-.274" stroke="#FDA916"/><path d="m5.825 22 2.325-7.6L2 10h7.6L12 2l2.4 8H22l-6.15 4.4 2.325 7.6L12 17.3 5.825 22Zm2.75-4.075 3.425-2.6 3.425 2.6L14.05 13.6l3.15-2.05h-3.775L12 7.225l-1.425 4.325H6.8l3.15 2.05-1.375 4.325Z" fill="#FDA916"/><path d="M12 9.333c-2.133 5.334-.889 4 0 2.667l.667.667-3.195 4.26M18 12l-8.528 4.927M18 12l-4.666-.274M18 12c.534.031-2.889.013-4.666 0l.666.667.667.666m-5.195 3.594L8.667 18l2-4.667-4-2 6.667.393M12 7.333l.667 4-1.333-2.666 4 9.333-4-4.667-2-2L14 14.667 16 12l-2.666-.274" stroke="#FDA916"/></svg>