<svg width="48" height="48" fill="none" xmlns="http://www.w3.org/2000/svg"><path d="M11.2 39.95c-1.633 0-3.025-.575-4.175-1.725-1.15-1.15-1.725-2.542-1.725-4.175H2V11c0-.8.3-1.5.9-2.1C3.5 8.3 4.2 8 5 8h28.95v8.35h5.25L46 25.4v8.65h-3.55c0 1.633-.575 3.025-1.725 4.175-1.15 1.15-2.542 1.725-4.175 1.725s-3.025-.575-4.175-1.725c-1.15-1.15-1.725-2.542-1.725-4.175H17.1c0 1.633-.575 3.025-1.725 4.175-1.15 1.15-2.542 1.725-4.175 1.725Zm0-3c.8 0 1.483-.283 2.05-.85.567-.567.85-1.25.85-2.05 0-.8-.283-1.483-.85-2.05a2.794 2.794 0 0 0-2.05-.85c-.8 0-1.483.283-2.05.85a2.794 2.794 0 0 0-.85 2.05c0 .8.283 1.483.85 2.05.567.567 1.25.85 2.05.85ZM5 31.05h1.1a6.624 6.624 0 0 1 2.15-2.15c.867-.533 1.833-.8 2.9-.8s2.042.275 2.925.825a6.967 6.967 0 0 1 2.175 2.125h14.7V11H5v20.05Zm31.55 5.9c.8 0 1.483-.283 2.05-.85.567-.567.85-1.25.85-2.05 0-.8-.283-1.483-.85-2.05a2.794 2.794 0 0 0-2.05-.85c-.8 0-1.483.283-2.05.85a2.794 2.794 0 0 0-.85 2.05c0 .8.283 1.483.85 2.05.567.567 1.25.85 2.05.85Zm-2.6-10.2h9.3l-5.55-7.4h-3.75v7.4Z" fill="#FDA916"/></svg>