<svg width="361" height="449" fill="none" xmlns="http://www.w3.org/2000/svg"><path d="m237.904 76.812 12.792-32.262 34.336-5.053 21.542 27.21-12.79 32.26-34.336 5.053-21.544-27.208Z" fill="#E9E8E8" fill-opacity=".8"/><path d="m194.197 111.756 12.792-32.262 34.336-5.053 21.543 27.209-12.791 32.262-34.336 5.053-21.544-27.209Z" fill="#E9E8E8" fill-opacity=".8"/><path d="m245.821 132.21 12.792-32.262 34.336-5.053 21.542 27.209-12.79 32.262-34.336 5.053-21.544-27.209Z" fill="#E9E8E8" fill-opacity=".8"/><g clip-path="url(#a)"><path d="M299.997 299c0 82.846-67.145 150-149.995 150-82.842 0-150-67.154-150-150 0-82.837 67.159-150 150-150 82.85 0 149.995 67.163 149.995 150Z" fill="#FC6E51"/><path d="M262.497 274.006c0 17.258-16.79 31.247-37.5 31.247-20.704 0-37.495-13.989-37.495-31.247 0-17.267 16.791-31.256 37.495-31.256 20.71 0 37.5 13.989 37.5 31.256ZM133.015 374c0 10.355-11.192 18.75-24.999 18.75-13.805 0-25.002-8.395-25.002-18.75s11.197-18.75 25.002-18.75c13.807 0 24.999 8.395 24.999 18.75ZM95.99 286.503c0 13.806-13.989 25.003-31.246 25.003-17.262 0-31.252-11.196-31.252-25.003 0-13.806 13.99-25.003 31.252-25.003 17.257 0 31.247 11.196 31.247 25.003ZM187.502 205.25a6.44 6.44 0 0 0-1.941.311c-.293.101-29.516 9.577-61.083 12.232-30.437 2.554-50.753-4.569-62.44-10.996-10.734-5.895-16.364-12.304-17.83-14.127a148.653 148.653 0 0 0-8.546 9.248c2.985 3.387 9.292 9.622 19.574 15.399 18.837 10.602 39.743 13.494 56.945 13.494 4.775 0 9.266-.219 13.344-.567 32.387-2.72 61.656-12.067 63.918-12.808a6.244 6.244 0 0 0 4.311-5.933 6.254 6.254 0 0 0-6.252-6.253ZM296.977 329.139c-5.548 1.126-34.809 6.903-63.684 9.329-59.065 4.962-79.72-7.104-79.921-7.223a6.247 6.247 0 0 0-9.622 5.254 6.24 6.24 0 0 0 2.884 5.264c.632.412 6.619 4.074 20.452 6.931 11.243 2.326 24.289 3.488 39.011 3.488 8.826 0 18.26-.421 28.239-1.254 23.786-1.996 47.81-6.208 59.253-8.386a154.43 154.43 0 0 0 3.388-13.403ZM201.29 392.75a6.223 6.223 0 0 0-3.323.961c-.275.174-27.741 17.203-58.42 19.776-31.462 2.637-58.607-1.694-75.842-5.786-10.684-2.545-18.988-5.31-24.175-7.233a150.83 150.83 0 0 0 21.767 19.51c14.31 3.369 34.818 6.812 58.813 6.812 6.583 0 13.431-.257 20.481-.852 33.792-2.828 62.805-20.883 64.023-21.643a6.246 6.246 0 0 0 2.92-5.292 6.247 6.247 0 0 0-6.244-6.253Z" fill="#E9573F"/></g><defs><clipPath id="a"><path fill="#fff" transform="translate(0 149)" d="M0 0h300v300H0z"/></clipPath></defs></svg>