<svg width="349" height="382" fill="none" xmlns="http://www.w3.org/2000/svg"><g clip-path="url(#a)"><path d="M55 0C85.376 0 110 24.625 110 54.998 109.999 85.375 85.377 110 55 110 24.627 110 .002 85.375.002 54.998.002 24.625 24.627 0 55 0Z" fill="#EFC75E"/><path d="M45.685 45.593c-3.224 2.252-7.36 3.17-11.46 2.077-7.363-1.966-11.732-9.508-9.759-16.843.423-1.565 1.142-2.957 2.015-4.215-2.568 1.788-4.575 4.4-5.449 7.652-1.973 7.335 2.396 14.877 9.76 16.843 5.795 1.544 11.673-.86 14.893-5.514Zm43.69-4.34c-9.494 0-17.187-7.697-17.187-17.188 0-3.867 1.323-7.397 3.482-10.27-4.18 3.134-6.919 8.084-6.919 13.707 0 9.494 7.693 17.187 17.187 17.187 5.627 0 10.57-2.74 13.705-6.916-2.868 2.156-6.401 3.48-10.268 3.48ZM39.46 82.287a6.88 6.88 0 0 1-4.86-8.422l.384-1.017c-1.811.818-3.268 2.382-3.822 4.455a6.88 6.88 0 0 0 4.86 8.421c3.307.887 6.68-.807 8.034-3.84-1.396.633-2.997.833-4.596.403Zm33.48-3.592c-5.503-1.478-8.768-7.13-7.29-12.636.264-.997.708-1.887 1.223-2.723-2.217 1.33-3.942 3.472-4.66 6.16-1.479 5.507 1.79 11.158 7.29 12.636 4.503 1.207 9.072-.794 11.399-4.568a10.274 10.274 0 0 1-7.961 1.13Z" fill="#C89147"/><path d="M61.875 103.125c-30.373 0-54.998-24.625-54.998-55.002 0-13.436 4.833-25.735 12.835-35.288C7.672 22.924.002 38.06.002 54.998.002 85.375 24.627 110 55 110c16.94 0 32.071-7.665 42.163-19.707-9.552 8.002-21.847 12.832-35.288 12.832Z" fill="#D7B354"/><path d="M103.049 28.266c-3.936-7.054-9.388-13.124-15.901-17.83l-1.21-.124c-9.494 0-17.187 7.696-17.187 17.187 0 9.494 7.693 17.187 17.187 17.187 9.233.004 16.702-7.29 17.111-16.42ZM72.171 82.484c5.697 0 10.316-4.619 10.316-10.316 0-5.697-4.619-10.316-10.316-10.316-5.697 0-10.316 4.619-10.316 10.316 0 5.697 4.619 10.316 10.316 10.316ZM37.938 24.54c-7.367-1.966-14.933 2.385-16.906 9.724-1.973 7.335 2.396 14.877 9.76 16.843 7.366 1.963 14.935-2.39 16.908-9.724 1.973-7.336-2.4-14.877-9.762-16.844ZM37.804 85.96a6.875 6.875 0 1 0 0-13.75 6.875 6.875 0 0 0 0 13.75Z" fill="#DFA14F"/></g><g clip-path="url(#b)"><path d="M198.994 381.982c82.838 0 149.991-67.153 149.991-149.991C348.985 149.153 281.832 82 198.994 82c-82.838 0-149.991 67.153-149.991 149.991 0 82.838 67.153 149.991 149.991 149.991Z" fill="#FF7900"/><path d="M305.058 125.932c58.585 58.57 58.585 153.543 0 212.123-58.575 58.594-153.544 58.594-212.12-.004" fill="#F50"/><path d="M198.999 342.396c60.969 0 110.395-49.426 110.395-110.395 0-60.97-49.426-110.396-110.395-110.396-60.97 0-110.395 49.426-110.395 110.396 0 60.969 49.425 110.395 110.395 110.395Z" fill="#FF9700"/><path d="M199.004 121.6c60.975-.005 110.395 49.42 110.395 110.4.01 60.975-49.42 110.4-110.395 110.395" fill="#FF7900"/><path d="M199.003 305.473c40.578 0 73.472-32.895 73.472-73.472 0-40.578-32.894-73.473-73.472-73.473-40.577 0-73.472 32.895-73.472 73.473 0 40.577 32.895 73.472 73.472 73.472Z" fill="#FA0"/><path d="M147.047 180.049c28.692-28.693 75.211-28.693 103.903 0 28.693 28.697 28.693 75.211 0 103.903" fill="#FF9700"/></g><defs><clipPath id="a"><path fill="#fff" d="M0 0h110v110H0z"/></clipPath><clipPath id="b"><path fill="#fff" transform="translate(49 82)" d="M0 0h300v300H0z"/></clipPath></defs></svg>