<svg width="300" height="300" viewBox="0 0 300 300" fill="none" xmlns="http://www.w3.org/2000/svg">
<g clip-path="url(#clip0_283_325)">
<path d="M149.994 299.982C232.832 299.982 299.985 232.829 299.985 149.991C299.985 67.1533 232.832 0 149.994 0C67.1562 0 0.00292969 67.1533 0.00292969 149.991C0.00292969 232.829 67.1562 299.982 149.994 299.982Z" fill="#FF7900"/>
<path d="M256.058 43.9316C314.643 102.502 314.643 197.475 256.058 256.055C197.483 314.649 102.514 314.649 43.9385 256.051" fill="#FF5500"/>
<path d="M149.999 260.396C210.968 260.396 260.394 210.97 260.394 150.001C260.394 89.031 210.968 39.6053 149.999 39.6053C89.0292 39.6053 39.6035 89.031 39.6035 150.001C39.6035 210.97 89.0292 260.396 149.999 260.396Z" fill="#FF9700"/>
<path d="M150.004 39.6C210.979 39.5952 260.399 89.0202 260.399 150C260.409 210.975 210.979 260.4 150.004 260.395" fill="#FF7900"/>
<path d="M150.003 223.473C190.581 223.473 223.475 190.578 223.475 150.001C223.475 109.423 190.581 76.5284 150.003 76.5284C109.426 76.5284 76.5312 109.423 76.5312 150.001C76.5312 190.578 109.426 223.473 150.003 223.473Z" fill="#FFAA00"/>
<path d="M98.0469 98.0489C126.739 69.3564 173.258 69.3564 201.95 98.0489C230.643 126.746 230.643 173.26 201.95 201.952" fill="#FF9700"/>
</g>
<defs>
<clipPath id="clip0_283_325">
<rect width="300" height="300" fill="white"/>
</clipPath>
</defs>
</svg>
