<svg width="40" height="40" fill="none" xmlns="http://www.w3.org/2000/svg"><path d="M18.598 40c-2.591-.133-5.019-.75-7.282-1.852a20.006 20.006 0 0 1-5.904-4.33c-1.673-1.786-2.993-3.864-3.96-6.233C.483 25.214 0 22.694 0 20.024c0-2.77.517-5.373 1.55-7.81C2.583 9.78 3.985 7.66 5.756 5.857c1.772-1.802 3.854-3.229 6.249-4.28C14.399.526 16.958 0 19.68 0c4.887 0 9.135 1.569 12.743 4.706 3.608 3.137 5.822 7.075 6.642 11.815h-3.001c-.558-2.804-1.722-5.307-3.493-7.51-1.771-2.202-3.985-3.855-6.642-4.956v.901a4.399 4.399 0 0 1-1.181 3.054c-.787.868-1.755 1.302-2.903 1.302h-4.28v4.355c0 .568-.222 1.035-.665 1.402-.442.367-.943.55-1.5.55h-4.084v4.406h5.412v6.258h-3.296L3.395 16.07a14.289 14.289 0 0 0-.345 1.978c-.065.65-.098 1.31-.098 1.977 0 4.506 1.492 8.394 4.477 11.665 2.985 3.27 6.708 5.04 11.169 5.306V40Zm19.286-1.302-6.593-6.708c-.688.5-1.434.884-2.238 1.151a7.83 7.83 0 0 1-2.485.4c-2.329 0-4.305-.825-5.928-2.477-1.624-1.652-2.436-3.663-2.436-6.033 0-2.37.812-4.38 2.436-6.032 1.623-1.652 3.6-2.478 5.928-2.478 2.33 0 4.305.826 5.929 2.478 1.623 1.652 2.435 3.663 2.435 6.032 0 .868-.14 1.71-.418 2.528a11.183 11.183 0 0 1-1.107 2.328L40 36.546l-2.116 2.152Zm-11.316-8.16c1.51 0 2.788-.534 3.838-1.602 1.05-1.068 1.574-2.37 1.574-3.905 0-1.535-.524-2.837-1.574-3.905-1.05-1.068-2.329-1.602-3.838-1.602s-2.788.534-3.837 1.602c-1.05 1.068-1.575 2.37-1.575 3.905 0 1.536.525 2.837 1.575 3.905 1.05 1.068 2.328 1.602 3.837 1.602Z" fill="url(#a)" fill-opacity=".8"/><defs><linearGradient id="a" x1="20" y1="17" x2="20" y2="40" gradientUnits="userSpaceOnUse"><stop stop-color="#FDA916"/><stop offset="1" stop-color="#E9E8E8" stop-opacity=".6"/></linearGradient></defs></svg>