<svg width="60" height="71" viewBox="0 0 60 71" fill="none" xmlns="http://www.w3.org/2000/svg">
<path d="M29.7209 71C25.4279 67.2023 20.7359 64.2853 15.6448 62.2488C10.5537 60.2124 5.33876 59.1942 0 59.1942V23.7767C5.17364 23.7767 10.306 24.9601 15.3971 27.3267C20.4882 29.6934 25.2628 32.9957 29.7209 37.2337C34.1791 32.9957 38.9537 29.6934 44.0448 27.3267C49.1358 24.9601 54.2682 23.7767 59.4419 23.7767V59.1942C54.1031 59.1942 48.8882 60.2124 43.7971 62.2488C38.706 64.2853 34.014 67.2023 29.7209 71ZM29.7209 64.643C33.6287 61.836 37.6603 59.5932 41.8157 57.9145C45.9711 56.2359 50.1953 55.1764 54.4884 54.736V29.143C50.7457 29.7484 46.7967 31.2483 42.6413 33.6424C38.4859 36.0366 34.1791 39.3527 29.7209 43.5907C24.8775 39.1326 20.4744 35.7477 16.5116 33.436C12.5488 31.1244 8.69612 29.6934 4.95349 29.143V54.736C9.24651 55.1764 13.4707 56.2359 17.6262 57.9145C21.7816 59.5932 25.8132 61.836 29.7209 64.643ZM29.9686 25.4279C26.3911 25.4279 23.3777 24.2033 20.9285 21.7541C18.4793 19.3048 17.2547 16.2915 17.2547 12.714C17.2547 9.13643 18.4793 6.12306 20.9285 3.67384C23.3777 1.22461 26.3911 0 29.9686 0C33.5461 0 36.5595 1.22461 39.0087 3.67384C41.4579 6.12306 42.6826 9.13643 42.6826 12.714C42.6826 16.2915 41.4579 19.3048 39.0087 21.7541C36.5595 24.2033 33.5461 25.4279 29.9686 25.4279ZM29.9686 20.4744C32.1151 20.4744 33.9452 19.7176 35.4587 18.2041C36.9723 16.6905 37.7291 14.8605 37.7291 12.714C37.7291 10.5674 36.9723 8.7374 35.4587 7.22384C33.9452 5.71027 32.1151 4.95349 29.9686 4.95349C27.8221 4.95349 25.9921 5.71027 24.4785 7.22384C22.9649 8.7374 22.2081 10.5674 22.2081 12.714C22.2081 14.8605 22.9649 16.6905 24.4785 18.2041C25.9921 19.7176 27.8221 20.4744 29.9686 20.4744V20.4744Z" fill="url(#paint0_linear_83_47)" fill-opacity="0.8"/>
<defs>
<linearGradient id="paint0_linear_83_47" x1="29.7209" y1="0" x2="29.7209" y2="71" gradientUnits="userSpaceOnUse">
<stop stop-color="#FDA916"/>
<stop offset="1" stop-color="#E9E8E8"/>
</linearGradient>
</defs>
</svg>
