<svg xmlns="http://www.w3.org/2000/svg" width="17" height="17" fill="none"><path fill="#E9E8E8" fill-opacity=".8" d="M8.022 12.042h1.062v-4.25H8.022v4.25Zm.478-5.56a.582.582 0 0 0 .416-.16.536.536 0 0 0 .168-.407.595.595 0 0 0-.168-.425.551.551 0 0 0-.416-.178.551.551 0 0 0-.416.178.595.595 0 0 0-.168.425c0 .165.056.3.168.407.112.106.25.16.416.16Zm0 9.101a6.853 6.853 0 0 1-2.745-.558 7.185 7.185 0 0 1-2.258-1.522 7.185 7.185 0 0 1-1.522-2.258 6.898 6.898 0 0 1-.558-2.763c0-.968.186-1.883.558-2.745A7.079 7.079 0 0 1 3.497 3.49a7.26 7.26 0 0 1 2.258-1.515 6.897 6.897 0 0 1 2.763-.557c.968 0 1.883.186 2.745.557A7.153 7.153 0 0 1 13.51 3.49a7.154 7.154 0 0 1 1.515 2.248c.372.862.557 1.783.557 2.763 0 .968-.185 1.883-.557 2.745a7.262 7.262 0 0 1-1.514 2.258 7.08 7.08 0 0 1-2.25 1.522 6.897 6.897 0 0 1-2.762.558Zm.018-1.062c1.664 0 3.081-.588 4.25-1.762 1.168-1.175 1.753-2.6 1.753-4.277 0-1.664-.585-3.081-1.753-4.25C11.599 3.063 10.177 2.48 8.5 2.48c-1.665 0-3.084.584-4.259 1.753C3.067 5.401 2.48 6.824 2.48 8.5c0 1.665.588 3.084 1.762 4.259 1.175 1.175 2.6 1.762 4.277 1.762Z"/></svg>