<svg xmlns="http://www.w3.org/2000/svg" width="17" height="17" fill="none"><path fill="#E9E8E8" fill-opacity=".8" d="M8.5 15.583c-.98 0-1.9-.186-2.762-.558a7.154 7.154 0 0 1-2.25-1.514 7.153 7.153 0 0 1-1.513-2.248A6.898 6.898 0 0 1 1.417 8.5c0-.98.186-1.9.558-2.763A7.153 7.153 0 0 1 3.489 3.49a7.153 7.153 0 0 1 2.249-1.515A6.897 6.897 0 0 1 8.5 1.417c.98 0 1.9.186 2.763.557A7.153 7.153 0 0 1 13.51 3.49a7.154 7.154 0 0 1 1.515 2.248c.372.862.557 1.783.557 2.763s-.185 1.9-.557 2.762a7.153 7.153 0 0 1-1.514 2.25 7.153 7.153 0 0 1-2.25 1.513 6.897 6.897 0 0 1-2.762.558Zm-.761-1.08v-1.452c-.414 0-.762-.153-1.045-.46a1.541 1.541 0 0 1-.425-1.08v-.78l-3.63-3.63c-.06.236-.1.47-.124.7-.024.23-.036.463-.036.699 0 1.535.499 2.875 1.497 4.02.997 1.145 2.252 1.806 3.763 1.983Zm5.206-1.912c.26-.284.487-.585.682-.903.194-.32.36-.653.495-1.001a5.67 5.67 0 0 0 .302-1.071c.064-.366.097-.738.097-1.116a5.986 5.986 0 0 0-1.027-3.409 5.974 5.974 0 0 0-2.745-2.24v.319c0 .413-.142.773-.425 1.08-.283.307-.632.46-1.045.46H7.74v1.541c0 .2-.08.366-.24.496a.832.832 0 0 1-.54.195H5.49V8.5h4.57c.2 0 .365.077.495.23.13.154.195.33.195.531v2.25h.761c.343 0 .644.1.904.3.26.201.436.46.53.78Z"/></svg>