<svg xmlns="http://www.w3.org/2000/svg" width="138" height="58" fill="none"><path fill="#E9E8E8" d="M67.384 8.533h.383v.384a.383.383 0 0 0 .767 0v-.384h.383a.383.383 0 0 0 0-.766h-.383v-.384a.383.383 0 0 0-.767 0v.384h-.383a.384.384 0 0 0 0 .766ZM80.384 6.533h.383v.384a.383.383 0 0 0 .767 0v-.384h.383a.383.383 0 0 0 0-.766h-.383v-.384a.383.383 0 0 0-.767 0v.384h-.383a.384.384 0 0 0 0 .766Z"/><g clip-path="url(#a)"><path fill="#E9E8E8" d="m70.216 11.067 1.843-4.648 4.946-.728 3.104 3.92-1.843 4.648-4.947.728-3.103-3.92Z"/></g><g clip-path="url(#b)"><path fill="#E9E8E8" d="m63.918 16.101 1.843-4.648 4.947-.728 3.104 3.92-1.843 4.648-4.947.728-3.104-3.92Z"/></g><g clip-path="url(#c)"><path fill="#E9E8E8" d="m71.356 19.048 1.843-4.648 4.947-.728 3.103 3.92-1.843 4.648-4.946.728-3.104-3.92Z"/></g><path fill="#E9E8E8" d="M11.556 4.181v13.905c0 1.548-.477 2.79-1.431 3.726-.954.918-2.214 1.377-3.78 1.377-1.584 0-2.853-.468-3.807-1.404-.954-.954-1.431-2.25-1.431-3.888h2.457c.018.918.252 1.665.702 2.241.468.576 1.161.864 2.079.864.918 0 1.602-.27 2.052-.81.45-.558.675-1.26.675-2.106V4.181h2.484Zm28.492 0L34.594 23H31.84L27.466 7.853 22.93 23l-2.727.027-5.265-18.846h2.62l4.103 15.957 4.536-15.957h2.754l4.32 15.903 4.131-15.903h2.646Zm8.656 19.008c-1.242 0-2.358-.216-3.348-.648-.972-.45-1.737-1.062-2.295-1.836-.558-.792-.846-1.701-.864-2.727h2.62a3.53 3.53 0 0 0 1.08 2.241c.647.594 1.583.891 2.807.891 1.17 0 2.088-.288 2.754-.864.684-.594 1.026-1.35 1.026-2.268 0-.72-.198-1.305-.594-1.755a3.795 3.795 0 0 0-1.485-1.026c-.594-.234-1.395-.486-2.403-.756-1.242-.324-2.24-.648-2.997-.972-.738-.324-1.377-.828-1.917-1.512-.522-.702-.783-1.638-.783-2.808 0-1.026.261-1.935.783-2.727.522-.792 1.251-1.404 2.187-1.836.954-.432 2.043-.648 3.267-.648 1.764 0 3.204.441 4.32 1.323 1.134.882 1.773 2.052 1.917 3.51h-2.7c-.09-.72-.468-1.35-1.134-1.89-.666-.558-1.548-.837-2.646-.837-1.026 0-1.863.27-2.51.81-.649.522-.973 1.26-.973 2.214 0 .684.19 1.242.567 1.674.396.432.873.765 1.431.999.576.216 1.377.468 2.403.756 1.242.342 2.241.684 2.997 1.026.756.324 1.404.837 1.944 1.539.54.684.81 1.62.81 2.808 0 .918-.243 1.782-.729 2.592s-1.206 1.467-2.16 1.971c-.954.504-2.079.756-3.375.756Zm-35.042 7.992v1.998h-5.13V50H6.075V33.179H.918v-1.998h12.744Zm16.524 10.854c0 .468-.027.963-.08 1.485H18.278c.09 1.458.585 2.601 1.485 3.429.918.81 2.025 1.215 3.321 1.215 1.062 0 1.944-.243 2.646-.729a3.977 3.977 0 0 0 1.512-1.998h2.646c-.396 1.422-1.188 2.583-2.376 3.483-1.188.882-2.664 1.323-4.428 1.323-1.404 0-2.664-.315-3.78-.945-1.098-.63-1.962-1.521-2.592-2.673-.63-1.17-.945-2.52-.945-4.05 0-1.53.306-2.871.918-4.023.612-1.152 1.467-2.034 2.565-2.646 1.116-.63 2.394-.945 3.834-.945 1.404 0 2.646.306 3.726.918a6.243 6.243 0 0 1 2.484 2.538c.594 1.062.891 2.268.891 3.618Zm-2.538-.513c0-.936-.207-1.737-.62-2.403a3.908 3.908 0 0 0-1.702-1.539c-.702-.36-1.485-.54-2.349-.54-1.242 0-2.304.396-3.186 1.188-.864.792-1.359 1.89-1.485 3.294h9.342Zm8.239-11.502V50H33.43V30.02h2.457Zm17.687 12.015c0 .468-.027.963-.08 1.485H41.666c.09 1.458.585 2.601 1.485 3.429.918.81 2.025 1.215 3.321 1.215 1.062 0 1.944-.243 2.646-.729a3.977 3.977 0 0 0 1.512-1.998h2.646c-.396 1.422-1.188 2.583-2.376 3.483-1.188.882-2.664 1.323-4.428 1.323-1.404 0-2.664-.315-3.78-.945-1.098-.63-1.962-1.521-2.592-2.673-.63-1.17-.945-2.52-.945-4.05 0-1.53.306-2.871.918-4.023.612-1.152 1.467-2.034 2.565-2.646 1.116-.63 2.394-.945 3.834-.945 1.404 0 2.646.306 3.726.918a6.243 6.243 0 0 1 2.484 2.538c.594 1.062.891 2.268.891 3.618Zm-2.538-.513c0-.936-.207-1.737-.62-2.403a3.908 3.908 0 0 0-1.702-1.539c-.702-.36-1.485-.54-2.349-.54-1.242 0-2.304.396-3.186 1.188-.864.792-1.359 1.89-1.485 3.294h9.342Zm11.02 8.721c-1.135 0-2.152-.189-3.052-.567-.9-.396-1.61-.936-2.133-1.62a4.379 4.379 0 0 1-.864-2.403h2.538c.072.738.414 1.341 1.026 1.809.63.468 1.45.702 2.457.702.936 0 1.674-.207 2.214-.621.54-.414.81-.936.81-1.566 0-.648-.288-1.125-.864-1.431-.576-.324-1.467-.639-2.673-.945-1.098-.288-1.998-.576-2.7-.864a5.127 5.127 0 0 1-1.782-1.323c-.486-.594-.729-1.368-.729-2.322 0-.756.225-1.449.675-2.079.45-.63 1.09-1.125 1.917-1.485.828-.378 1.773-.567 2.835-.567 1.638 0 2.961.414 3.97 1.242 1.007.828 1.547 1.962 1.62 3.402h-2.458c-.054-.774-.369-1.395-.945-1.863-.558-.468-1.314-.702-2.268-.702-.882 0-1.584.189-2.106.567-.522.378-.783.873-.783 1.485 0 .486.153.891.46 1.215.323.306.72.558 1.187.756.486.18 1.152.387 1.998.621 1.062.288 1.926.576 2.592.864.666.27 1.233.684 1.701 1.242.486.558.738 1.287.756 2.187 0 .81-.225 1.539-.675 2.187-.45.648-1.089 1.161-1.917 1.539-.81.36-1.746.54-2.808.54Zm7.95-7.668c0-1.53.306-2.862.918-3.996.612-1.152 1.458-2.043 2.538-2.673 1.098-.63 2.349-.945 3.753-.945 1.818 0 3.312.441 4.482 1.323 1.188.882 1.97 2.106 2.349 3.672H81.4c-.252-.9-.747-1.611-1.485-2.133-.72-.522-1.62-.783-2.7-.783-1.404 0-2.538.486-3.402 1.458-.864.954-1.296 2.313-1.296 4.077 0 1.782.432 3.159 1.296 4.131.864.972 1.998 1.458 3.402 1.458 1.08 0 1.98-.252 2.7-.756.72-.504 1.215-1.224 1.485-2.16h2.646c-.396 1.512-1.188 2.727-2.376 3.645-1.188.9-2.673 1.35-4.455 1.35-1.404 0-2.655-.315-3.753-.945-1.08-.63-1.926-1.521-2.538-2.673-.612-1.152-.918-2.502-.918-4.05Zm23.771 7.668c-1.386 0-2.646-.315-3.78-.945-1.116-.63-1.998-1.521-2.646-2.673-.63-1.17-.945-2.52-.945-4.05 0-1.512.324-2.844.972-3.996.666-1.17 1.566-2.061 2.7-2.673 1.134-.63 2.403-.945 3.807-.945s2.673.315 3.807.945a6.633 6.633 0 0 1 2.673 2.646c.666 1.152.999 2.493.999 4.023 0 1.53-.342 2.88-1.026 4.05a6.95 6.95 0 0 1-2.727 2.673c-1.152.63-2.43.945-3.834.945Zm0-2.16c.882 0 1.71-.207 2.484-.621.774-.414 1.395-1.035 1.863-1.863.486-.828.73-1.836.73-3.024s-.235-2.196-.703-3.024c-.468-.828-1.08-1.44-1.836-1.836a5.034 5.034 0 0 0-2.457-.621c-.9 0-1.728.207-2.484.621-.738.396-1.332 1.008-1.782 1.836-.45.828-.675 1.836-.675 3.024 0 1.206.216 2.223.648 3.051.45.828 1.044 1.449 1.782 1.863a5.058 5.058 0 0 0 2.43.594Zm13.275-10.152c.486-.846 1.206-1.548 2.16-2.106.972-.576 2.097-.864 3.375-.864 1.314 0 2.502.315 3.564.945 1.08.63 1.926 1.521 2.538 2.673.612 1.134.918 2.457.918 3.969 0 1.494-.306 2.826-.918 3.996-.612 1.17-1.458 2.079-2.538 2.727-1.062.648-2.25.972-3.564.972-1.26 0-2.376-.279-3.348-.837-.954-.576-1.683-1.287-2.187-2.133v9.747h-2.457V35.204h2.457v2.727Zm10.044 4.617c0-1.116-.225-2.088-.675-2.916-.45-.828-1.062-1.458-1.836-1.89a4.971 4.971 0 0 0-2.511-.648c-.9 0-1.737.225-2.511.675-.756.432-1.368 1.071-1.836 1.917-.45.828-.675 1.791-.675 2.889 0 1.116.225 2.097.675 2.943.468.828 1.08 1.467 1.836 1.917a5.068 5.068 0 0 0 2.511.648c.918 0 1.755-.216 2.511-.648.774-.45 1.386-1.089 1.836-1.917.45-.846.675-1.836.675-2.97Zm19.245-.513c0 .468-.027.963-.081 1.485h-11.826c.09 1.458.585 2.601 1.485 3.429.918.81 2.025 1.215 3.321 1.215 1.062 0 1.944-.243 2.646-.729a3.977 3.977 0 0 0 1.512-1.998h2.646c-.396 1.422-1.188 2.583-2.376 3.483-1.188.882-2.664 1.323-4.428 1.323-1.404 0-2.664-.315-3.78-.945-1.098-.63-1.962-1.521-2.592-2.673-.63-1.17-.945-2.52-.945-4.05 0-1.53.306-2.871.918-4.023.612-1.152 1.467-2.034 2.565-2.646 1.116-.63 2.394-.945 3.834-.945 1.404 0 2.646.306 3.726.918a6.243 6.243 0 0 1 2.484 2.538c.594 1.062.891 2.268.891 3.618Zm-2.538-.513c0-.936-.207-1.737-.621-2.403a3.908 3.908 0 0 0-1.701-1.539c-.702-.36-1.485-.54-2.349-.54-1.242 0-2.304.396-3.186 1.188-.864.792-1.359 1.89-1.485 3.294h9.342Z"/><defs><clipPath id="a"><path fill="#fff" d="m69.488 6.12 9.893-1.456 1.456 9.893-9.893 1.456z"/></clipPath><clipPath id="b"><path fill="#fff" d="m63.19 11.154 9.894-1.456 1.456 9.894-9.894 1.456z"/></clipPath><clipPath id="c"><path fill="#fff" d="m70.628 14.101 9.893-1.456 1.456 9.894-9.893 1.456z"/></clipPath></defs></svg>