<svg width="30" height="30" viewBox="0 0 30 30" fill="none" xmlns="http://www.w3.org/2000/svg">
<path d="M24.6875 12.1875L24.4063 11.0938C24.1979 11.0104 23.9844 10.8958 23.7656 10.75C23.5469 10.6042 23.3646 10.4479 23.2188 10.2812L21.8437 10.7812L21.2187 9.6875L22.3125 8.8125C22.2708 8.70833 22.2344 8.59375 22.2031 8.46875C22.1719 8.34375 22.1562 8.21875 22.1562 8.09375C22.1562 7.96875 22.1719 7.84375 22.2031 7.71875C22.2344 7.59375 22.2708 7.47917 22.3125 7.375L21.2187 6.5L21.8437 5.40625L23.2188 5.90625C23.3646 5.73958 23.5469 5.57812 23.7656 5.42187C23.9844 5.26562 24.1979 5.15625 24.4063 5.09375L24.6875 4H25.875L26.1562 5.09375C26.3646 5.15625 26.5781 5.26562 26.7969 5.42187C27.0156 5.57812 27.1979 5.73958 27.3438 5.90625L28.7188 5.40625L29.3438 6.5L28.25 7.375C28.2917 7.47917 28.3281 7.59375 28.3594 7.71875C28.3906 7.84375 28.4062 7.96875 28.4062 8.09375C28.4062 8.21875 28.3906 8.34375 28.3594 8.46875C28.3281 8.59375 28.2917 8.70833 28.25 8.8125L29.3438 9.6875L28.7188 10.7812L27.3438 10.2812C27.1979 10.4479 27.0156 10.6042 26.7969 10.75C26.5781 10.8958 26.3646 11.0104 26.1562 11.0938L25.875 12.1875H24.6875ZM25.2812 9.90625C25.8021 9.90625 26.2344 9.73438 26.5781 9.39062C26.9219 9.04688 27.0938 8.61458 27.0938 8.09375C27.0938 7.57292 26.9219 7.14063 26.5781 6.79688C26.2344 6.45313 25.8021 6.28125 25.2812 6.28125C24.7604 6.28125 24.3281 6.45313 23.9844 6.79688C23.6406 7.14063 23.4688 7.57292 23.4688 8.09375C23.4688 8.61458 23.6406 9.04688 23.9844 9.39062C24.3281 9.73438 24.7604 9.90625 25.2812 9.90625ZM21.3125 18.9688L21.25 18.0625C21.1042 17.9792 20.9531 17.8854 20.7969 17.7812C20.6406 17.6771 20.5 17.5729 20.375 17.4688L19.5625 17.9062L18.875 16.9062L19.6875 16.3125C19.6458 16.2292 19.625 16.151 19.625 16.0781V15.6094C19.625 15.5365 19.6458 15.4583 19.6875 15.375L18.875 14.7812L19.5625 13.7812L20.375 14.2188L20.8125 13.9062C20.9583 13.8021 21.1042 13.7083 21.25 13.625L21.3125 12.7188H22.5625L22.625 13.625C22.7708 13.7083 22.9167 13.8021 23.0625 13.9062L23.5 14.2188L24.3125 13.7812L25 14.7812L24.1875 15.375C24.2292 15.4583 24.25 15.5365 24.25 15.6094V16.0781C24.25 16.151 24.2292 16.2292 24.1875 16.3125L25 16.9062L24.3125 17.9062L23.5 17.4688C23.375 17.5729 23.2344 17.6771 23.0781 17.7812C22.9219 17.8854 22.7708 17.9792 22.625 18.0625L22.5625 18.9688H21.3125ZM21.9375 17.0312C22.2708 17.0312 22.5521 16.9167 22.7812 16.6875C23.0104 16.4583 23.125 16.1771 23.125 15.8438C23.125 15.5104 23.0104 15.2292 22.7812 15C22.5521 14.7708 22.2708 14.6562 21.9375 14.6562C21.6042 14.6562 21.3229 14.7708 21.0938 15C20.8646 15.2292 20.75 15.5104 20.75 15.8438C20.75 16.1771 20.8646 16.4583 21.0938 16.6875C21.3229 16.9167 21.6042 17.0312 21.9375 17.0312ZM11.875 16.9688C10.5 16.9688 9.375 16.5208 8.5 15.625C7.625 14.7292 7.1875 13.6146 7.1875 12.2812H6.875C6.70833 12.2812 6.5625 12.2188 6.4375 12.0938C6.3125 11.9688 6.25 11.8229 6.25 11.6562C6.25 11.4896 6.3125 11.3437 6.4375 11.2187C6.5625 11.0937 6.70833 11.0312 6.875 11.0312H7.1875C7.1875 10.1979 7.39583 9.44792 7.8125 8.78125C8.22917 8.11458 8.77083 7.57292 9.4375 7.15625V8.375C9.4375 8.5 9.48438 8.60937 9.57812 8.70312C9.67188 8.79688 9.78125 8.84375 9.90625 8.84375C10.0521 8.84375 10.1667 8.79688 10.25 8.70312C10.3333 8.60937 10.375 8.5 10.375 8.375V6.75C10.5417 6.70833 10.7708 6.67188 11.0625 6.64063C11.3542 6.60938 11.6354 6.59375 11.9062 6.59375C12.1771 6.59375 12.4583 6.60938 12.75 6.64063C13.0417 6.67188 13.2708 6.70833 13.4375 6.75V8.375C13.4375 8.5 13.4792 8.60937 13.5625 8.70312C13.6458 8.79688 13.7604 8.84375 13.9062 8.84375C14.0312 8.84375 14.1406 8.79688 14.2344 8.70312C14.3281 8.60937 14.375 8.5 14.375 8.375V7.15625C15.0417 7.57292 15.5729 8.11458 15.9688 8.78125C16.3646 9.44792 16.5625 10.1979 16.5625 11.0312H16.875C17.0417 11.0312 17.1875 11.0937 17.3125 11.2187C17.4375 11.3437 17.5 11.4896 17.5 11.6562C17.5 11.8229 17.4375 11.9688 17.3125 12.0938C17.1875 12.2188 17.0417 12.2812 16.875 12.2812H16.5625C16.5625 13.6146 16.125 14.7292 15.25 15.625C14.375 16.5208 13.25 16.9688 11.875 16.9688ZM11.875 15.0938C12.75 15.0938 13.4375 14.8333 13.9375 14.3125C14.4375 13.7917 14.6875 13.1146 14.6875 12.2812H9.0625C9.0625 13.1146 9.3125 13.7917 9.8125 14.3125C10.3125 14.8333 11 15.0938 11.875 15.0938ZM2 26.5V23.625C2 22.9167 2.16667 22.3281 2.5 21.8594C2.83333 21.3906 3.30208 21.0104 3.90625 20.7188C5.03125 20.1771 6.23438 19.7292 7.51563 19.375C8.79688 19.0208 10.25 18.8438 11.875 18.8438C13.5 18.8438 14.9531 19.0208 16.2344 19.375C17.5156 19.7292 18.7188 20.1771 19.8438 20.7188C20.4479 21.0104 20.9167 21.3906 21.25 21.8594C21.5833 22.3281 21.75 22.9167 21.75 23.625V26.5H2ZM3.875 24.625H19.875V23.625C19.875 23.3125 19.7865 23.0573 19.6094 22.8594C19.4323 22.6615 19.2188 22.5104 18.9688 22.4062C18.0729 22.0104 17.0729 21.6302 15.9688 21.2656C14.8646 20.901 13.5 20.7188 11.875 20.7188C10.25 20.7188 8.88542 20.901 7.78125 21.2656C6.67708 21.6302 5.67708 22.0104 4.78125 22.4062C4.53125 22.5104 4.31771 22.6615 4.14062 22.8594C3.96354 23.0573 3.875 23.3125 3.875 23.625V24.625Z" fill="#FDA916"/>
</svg>
