<svg width="24" height="24" viewBox="0 0 24 24" fill="none" xmlns="http://www.w3.org/2000/svg">
<path d="M22.175 9.825L21.6 8.575L20.35 8L21.6 7.425L22.175 6.175L22.75 7.425L24 8L22.75 8.575L22.175 9.825ZM19 5.45L18.125 3.6L16.275 2.725L18.125 1.85L19 0L19.875 1.85L21.725 2.725L19.875 3.6L19 5.45ZM9 22C8.43333 22 7.95417 21.8042 7.5625 21.4125C7.17083 21.0208 6.975 20.5417 6.975 19.975H11.025C11.025 20.5417 10.8292 21.0208 10.4375 21.4125C10.0458 21.8042 9.56667 22 9 22ZM4.95 18.425V16.925H13.05V18.425H4.95ZM5.075 15.4C3.975 14.6833 3.10417 13.7875 2.4625 12.7125C1.82083 11.6375 1.5 10.425 1.5 9.075C1.5 7.04167 2.24167 5.28333 3.725 3.8C5.20833 2.31667 6.96667 1.575 9 1.575C11.0333 1.575 12.7917 2.31667 14.275 3.8C15.7583 5.28333 16.5 7.04167 16.5 9.075C16.5 10.425 16.1833 11.6375 15.55 12.7125C14.9167 13.7875 14.0417 14.6833 12.925 15.4H5.075ZM5.625 13.9H12.4C13.2 13.3667 13.8333 12.675 14.3 11.825C14.7667 10.975 15 10.0583 15 9.075C15 7.425 14.4125 6.0125 13.2375 4.8375C12.0625 3.6625 10.65 3.075 9 3.075C7.35 3.075 5.9375 3.6625 4.7625 4.8375C3.5875 6.0125 3 7.425 3 9.075C3 10.0583 3.23333 10.975 3.7 11.825C4.16667 12.675 4.80833 13.3667 5.625 13.9V13.9Z" fill="#E9E8E8"/>
</svg>
