<svg width="30" height="30" viewBox="0 0 30 30" fill="none" xmlns="http://www.w3.org/2000/svg">
<path d="M27.7188 12.2812L27 10.7188L25.4375 10L27 9.28125L27.7188 7.71875L28.4375 9.28125L30 10L28.4375 10.7188L27.7188 12.2812ZM23.75 6.8125L22.6562 4.5L20.3438 3.40625L22.6562 2.3125L23.75 0L24.8438 2.3125L27.1562 3.40625L24.8438 4.5L23.75 6.8125ZM11.25 27.5C10.5417 27.5 9.94271 27.2552 9.45312 26.7656C8.96354 26.276 8.71875 25.6771 8.71875 24.9688H13.7812C13.7812 25.6771 13.5365 26.276 13.0469 26.7656C12.5573 27.2552 11.9583 27.5 11.25 27.5ZM6.1875 23.0312V21.1562H16.3125V23.0312H6.1875ZM6.34375 19.25C4.96875 18.3542 3.88021 17.2344 3.07813 15.8906C2.27604 14.5469 1.875 13.0312 1.875 11.3438C1.875 8.80208 2.80208 6.60417 4.65625 4.75C6.51042 2.89583 8.70833 1.96875 11.25 1.96875C13.7917 1.96875 15.9896 2.89583 17.8438 4.75C19.6979 6.60417 20.625 8.80208 20.625 11.3438C20.625 13.0312 20.2292 14.5469 19.4375 15.8906C18.6458 17.2344 17.5521 18.3542 16.1562 19.25H6.34375ZM7.03125 17.375H15.5C16.5 16.7083 17.2917 15.8438 17.875 14.7812C18.4583 13.7188 18.75 12.5729 18.75 11.3438C18.75 9.28125 18.0156 7.51562 16.5469 6.04688C15.0781 4.57812 13.3125 3.84375 11.25 3.84375C9.1875 3.84375 7.42187 4.57812 5.95312 6.04688C4.48437 7.51562 3.75 9.28125 3.75 11.3438C3.75 12.5729 4.04167 13.7188 4.625 14.7812C5.20833 15.8438 6.01042 16.7083 7.03125 17.375Z" fill="#E9E8E8"/>
</svg>
