<svg width="24" height="24" viewBox="0 0 24 24" fill="none" xmlns="http://www.w3.org/2000/svg">
<path d="M19.7496 9.74995L19.5246 8.87495C19.3579 8.80828 19.1871 8.71662 19.0121 8.59995C18.8371 8.48328 18.6913 8.35828 18.5746 8.22495L17.4746 8.62495L16.9746 7.74995L17.8496 7.04995C17.8163 6.96662 17.7871 6.87495 17.7621 6.77495C17.7371 6.67495 17.7246 6.57495 17.7246 6.47495C17.7246 6.37495 17.7371 6.27495 17.7621 6.17495C17.7871 6.07495 17.8163 5.98328 17.8496 5.89995L16.9746 5.19995L17.4746 4.32495L18.5746 4.72495C18.6913 4.59162 18.8371 4.46245 19.0121 4.33745C19.1871 4.21245 19.3579 4.12495 19.5246 4.07495L19.7496 3.19995H20.6996L20.9246 4.07495C21.0913 4.12495 21.2621 4.21245 21.4371 4.33745C21.6121 4.46245 21.7579 4.59162 21.8746 4.72495L22.9746 4.32495L23.4746 5.19995L22.5996 5.89995C22.6329 5.98328 22.6621 6.07495 22.6871 6.17495C22.7121 6.27495 22.7246 6.37495 22.7246 6.47495C22.7246 6.57495 22.7121 6.67495 22.6871 6.77495C22.6621 6.87495 22.6329 6.96662 22.5996 7.04995L23.4746 7.74995L22.9746 8.62495L21.8746 8.22495C21.7579 8.35828 21.6121 8.48328 21.4371 8.59995C21.2621 8.71662 21.0913 8.80828 20.9246 8.87495L20.6996 9.74995H19.7496ZM20.2246 7.92495C20.6413 7.92495 20.9871 7.78745 21.2621 7.51245C21.5371 7.23745 21.6746 6.89162 21.6746 6.47495C21.6746 6.05828 21.5371 5.71245 21.2621 5.43745C20.9871 5.16245 20.6413 5.02495 20.2246 5.02495C19.8079 5.02495 19.4621 5.16245 19.1871 5.43745C18.9121 5.71245 18.7746 6.05828 18.7746 6.47495C18.7746 6.89162 18.9121 7.23745 19.1871 7.51245C19.4621 7.78745 19.8079 7.92495 20.2246 7.92495V7.92495ZM17.0496 15.175L16.9996 14.45C16.8829 14.3833 16.7621 14.3083 16.6371 14.225C16.5121 14.1416 16.3996 14.0583 16.2996 13.975L15.6496 14.325L15.0996 13.525L15.7496 13.05C15.7163 12.9833 15.6996 12.9208 15.6996 12.8625V12.4875C15.6996 12.4291 15.7163 12.3666 15.7496 12.3L15.0996 11.825L15.6496 11.025L16.2996 11.375L16.6496 11.125C16.7663 11.0416 16.8829 10.9666 16.9996 10.9L17.0496 10.175H18.0496L18.0996 10.9C18.2163 10.9666 18.3329 11.0416 18.4496 11.125L18.7996 11.375L19.4496 11.025L19.9996 11.825L19.3496 12.3C19.3829 12.3666 19.3996 12.4291 19.3996 12.4875V12.8625C19.3996 12.9208 19.3829 12.9833 19.3496 13.05L19.9996 13.525L19.4496 14.325L18.7996 13.975C18.6996 14.0583 18.5871 14.1416 18.4621 14.225C18.3371 14.3083 18.2163 14.3833 18.0996 14.45L18.0496 15.175H17.0496ZM17.5496 13.625C17.8163 13.625 18.0413 13.5333 18.2246 13.35C18.4079 13.1666 18.4996 12.9416 18.4996 12.675C18.4996 12.4083 18.4079 12.1833 18.2246 12C18.0413 11.8166 17.8163 11.725 17.5496 11.725C17.2829 11.725 17.0579 11.8166 16.8746 12C16.6913 12.1833 16.5996 12.4083 16.5996 12.675C16.5996 12.9416 16.6913 13.1666 16.8746 13.35C17.0579 13.5333 17.2829 13.625 17.5496 13.625V13.625ZM9.49961 13.575C8.39961 13.575 7.49961 13.2166 6.79961 12.5C6.09961 11.7833 5.74961 10.8916 5.74961 9.82495H5.49961C5.36628 9.82495 5.24961 9.77495 5.14961 9.67495C5.04961 9.57495 4.99961 9.45828 4.99961 9.32495C4.99961 9.19162 5.04961 9.07495 5.14961 8.97495C5.24961 8.87495 5.36628 8.82495 5.49961 8.82495H5.74961C5.74961 8.15828 5.91628 7.55828 6.24961 7.02495C6.58294 6.49162 7.01628 6.05828 7.54961 5.72495V6.69995C7.54961 6.79995 7.58711 6.88745 7.66211 6.96245C7.73711 7.03745 7.82461 7.07495 7.92461 7.07495C8.04128 7.07495 8.13294 7.03745 8.19961 6.96245C8.26628 6.88745 8.29961 6.79995 8.29961 6.69995V5.39995C8.43294 5.36662 8.61628 5.33745 8.84961 5.31245C9.08294 5.28745 9.30794 5.27495 9.52461 5.27495C9.74128 5.27495 9.96628 5.28745 10.1996 5.31245C10.4329 5.33745 10.6163 5.36662 10.7496 5.39995V6.69995C10.7496 6.79995 10.7829 6.88745 10.8496 6.96245C10.9163 7.03745 11.0079 7.07495 11.1246 7.07495C11.2246 7.07495 11.3121 7.03745 11.3871 6.96245C11.4621 6.88745 11.4996 6.79995 11.4996 6.69995V5.72495C12.0329 6.05828 12.4579 6.49162 12.7746 7.02495C13.0913 7.55828 13.2496 8.15828 13.2496 8.82495H13.4996C13.6329 8.82495 13.7496 8.87495 13.8496 8.97495C13.9496 9.07495 13.9996 9.19162 13.9996 9.32495C13.9996 9.45828 13.9496 9.57495 13.8496 9.67495C13.7496 9.77495 13.6329 9.82495 13.4996 9.82495H13.2496C13.2496 10.8916 12.8996 11.7833 12.1996 12.5C11.4996 13.2166 10.5996 13.575 9.49961 13.575V13.575ZM9.49961 12.075C10.1996 12.075 10.7496 11.8666 11.1496 11.45C11.5496 11.0333 11.7496 10.4916 11.7496 9.82495H7.24961C7.24961 10.4916 7.44961 11.0333 7.84961 11.45C8.24961 11.8666 8.79961 12.075 9.49961 12.075ZM1.59961 21.2V18.9C1.59961 18.3333 1.73294 17.8625 1.99961 17.4875C2.26628 17.1125 2.64128 16.8083 3.12461 16.575C4.02461 16.1416 4.98711 15.7833 6.01211 15.5C7.03711 15.2166 8.19961 15.075 9.49961 15.075C10.7996 15.075 11.9621 15.2166 12.9871 15.5C14.0121 15.7833 14.9746 16.1416 15.8746 16.575C16.3579 16.8083 16.7329 17.1125 16.9996 17.4875C17.2663 17.8625 17.3996 18.3333 17.3996 18.9V21.2H1.59961ZM3.09961 19.7H15.8996V18.9C15.8996 18.65 15.8288 18.4458 15.6871 18.2875C15.5454 18.1291 15.3746 18.0083 15.1746 17.925C14.4579 17.6083 13.6579 17.3041 12.7746 17.0125C11.8913 16.7208 10.7996 16.575 9.49961 16.575C8.19961 16.575 7.10794 16.7208 6.22461 17.0125C5.34128 17.3041 4.54128 17.6083 3.82461 17.925C3.62461 18.0083 3.45378 18.1291 3.31211 18.2875C3.17044 18.4458 3.09961 18.65 3.09961 18.9V19.7Z" fill="#E9E8E8"/>
</svg>
