<svg width="24" height="24" viewBox="0 0 24 24" fill="none" xmlns="http://www.w3.org/2000/svg">
<path d="M4.675 10.2249L7.325 11.3499C7.625 10.7499 7.94583 10.1583 8.2875 9.57495C8.62917 8.99161 8.99167 8.43328 9.375 7.89995L7.4 7.49995L4.675 10.2249ZM8.525 12.2499L11.85 15.5749C12.8 15.1416 13.6917 14.6499 14.525 14.0999C15.3583 13.5499 16.0333 13.0166 16.55 12.4999C17.9 11.1499 18.8917 9.76662 19.525 8.34995C20.1583 6.93328 20.5 5.33328 20.55 3.54995C18.7667 3.59995 17.1667 3.94161 15.75 4.57495C14.3333 5.20828 12.95 6.19995 11.6 7.54995C11.0833 8.06662 10.55 8.74161 10 9.57495C9.45 10.4083 8.95833 11.2999 8.525 12.2499ZM14.25 9.84995C13.9167 9.51662 13.75 9.10412 13.75 8.61245C13.75 8.12078 13.9167 7.70828 14.25 7.37495C14.5833 7.04162 14.9958 6.87495 15.4875 6.87495C15.9792 6.87495 16.3917 7.04162 16.725 7.37495C17.0583 7.70828 17.225 8.12078 17.225 8.61245C17.225 9.10412 17.0583 9.51662 16.725 9.84995C16.3917 10.1833 15.9792 10.3499 15.4875 10.3499C14.9958 10.3499 14.5833 10.1833 14.25 9.84995ZM13.875 19.4249L16.6 16.6999L16.2 14.7249C15.6667 15.1083 15.1083 15.4708 14.525 15.8124C13.9417 16.1541 13.35 16.4749 12.75 16.7749L13.875 19.4249ZM22.025 2.07495C22.175 4.34162 21.8917 6.40828 21.175 8.27495C20.4583 10.1416 19.275 11.8999 17.625 13.5499L17.575 13.5999L17.525 13.6499L18.075 16.3999C18.125 16.6499 18.1125 16.8916 18.0375 17.1249C17.9625 17.3583 17.8333 17.5666 17.65 17.7499L13.375 22.0499L11.25 17.0999L7 12.8499L2.05 10.7249L6.35 6.44995C6.53333 6.26661 6.74167 6.13745 6.975 6.06245C7.20833 5.98745 7.45 5.97495 7.7 6.02495L10.45 6.57495C10.4667 6.55828 10.4833 6.54578 10.5 6.53745C10.5167 6.52912 10.5333 6.51662 10.55 6.49995C12.2 4.84995 13.9583 3.66245 15.825 2.93745C17.6917 2.21245 19.7583 1.92495 22.025 2.07495V2.07495ZM3.725 15.8749C4.30833 15.2916 5.02083 14.9958 5.8625 14.9874C6.70417 14.9791 7.41667 15.2666 8 15.8499C8.58333 16.4333 8.87083 17.1458 8.8625 17.9874C8.85417 18.8291 8.55833 19.5416 7.975 20.1249C7.54167 20.5583 6.87083 20.9166 5.9625 21.1999C5.05417 21.4833 3.69167 21.7499 1.875 21.9999C2.125 20.1833 2.3875 18.8166 2.6625 17.8999C2.9375 16.9833 3.29167 16.3083 3.725 15.8749V15.8749ZM4.775 16.9499C4.54167 17.1999 4.33333 17.5916 4.15 18.1249C3.96667 18.6583 3.80833 19.3416 3.675 20.1749C4.50833 20.0416 5.19167 19.8833 5.725 19.6999C6.25833 19.5166 6.65 19.3083 6.9 19.0749C7.21667 18.7916 7.37917 18.4374 7.3875 18.0124C7.39583 17.5874 7.25 17.2166 6.95 16.8999C6.63333 16.5999 6.2625 16.4541 5.8375 16.4624C5.4125 16.4708 5.05833 16.6333 4.775 16.9499Z" fill="#E9E8E8"/>
</svg>
