<svg width="300" height="300" viewBox="0 0 300 300" fill="none" xmlns="http://www.w3.org/2000/svg">
<g clip-path="url(#clip0_283_178)">
<path d="M299.997 150C299.997 232.846 232.852 300 150.002 300C67.1605 300 0.00195312 232.846 0.00195312 150C0.00195312 67.1632 67.1605 0 150.002 0C232.852 0 299.997 67.1632 299.997 150Z" fill="#FC6E51"/>
<path d="M262.497 125.006C262.497 142.264 245.707 156.253 224.997 156.253C204.293 156.253 187.502 142.264 187.502 125.006C187.502 107.739 204.293 93.7503 224.997 93.7503C245.707 93.7503 262.497 107.739 262.497 125.006Z" fill="#E9573F"/>
<path d="M133.015 225C133.015 235.355 121.823 243.75 108.016 243.75C94.2108 243.75 83.0137 235.355 83.0137 225C83.0137 214.645 94.2108 206.25 108.016 206.25C121.823 206.25 133.015 214.645 133.015 225Z" fill="#E9573F"/>
<path d="M95.9908 137.503C95.9908 151.309 82.0012 162.506 64.7439 162.506C47.4818 162.506 33.4922 151.31 33.4922 137.503C33.4922 123.697 47.4812 112.5 64.7439 112.5C82.0012 112.5 95.9908 123.696 95.9908 137.503Z" fill="#E9573F"/>
<path d="M187.502 56.2503C186.825 56.2503 186.165 56.3692 185.561 56.5614C185.268 56.6622 156.045 66.1378 124.478 68.7927C94.0411 71.3467 73.7252 64.2242 62.0388 57.7971C51.3041 51.9015 45.6739 45.4926 44.2085 43.6704C41.2331 46.6276 38.3814 49.7125 35.6621 52.9175C38.6468 56.3048 44.9543 62.5396 55.2362 68.3169C74.0726 78.9187 94.9791 81.8114 112.181 81.8114C116.956 81.8114 121.447 81.5917 125.525 81.2437C157.912 78.5244 187.181 69.177 189.443 68.4358C191.942 67.6208 193.754 65.2771 193.754 62.5033C193.755 59.0516 190.954 56.2503 187.502 56.2503Z" fill="#E9573F"/>
<path d="M296.977 180.139C291.429 181.265 262.168 187.042 233.293 189.468C174.228 194.43 153.573 182.364 153.372 182.245C152.402 181.623 151.248 181.256 150.003 181.256C146.551 181.256 143.75 184.048 143.75 187.499C143.75 189.715 144.904 191.656 146.634 192.763C147.266 193.175 153.253 196.837 167.086 199.694C178.329 202.02 191.375 203.182 206.097 203.182C214.923 203.182 224.357 202.761 234.336 201.928C258.122 199.932 282.146 195.72 293.589 193.542C294.907 189.157 296.043 184.689 296.977 180.139Z" fill="#E9573F"/>
<path d="M201.29 243.75C200.064 243.75 198.929 244.107 197.967 244.711C197.692 244.885 170.226 261.914 139.547 264.487C108.085 267.124 80.9396 262.793 63.7051 258.701C53.0207 256.156 44.7169 253.391 39.5303 251.468C46.1313 258.655 53.4232 265.192 61.2969 270.978C75.6065 274.347 96.1145 277.79 120.11 277.79C126.693 277.79 133.541 277.533 140.591 276.938C174.383 274.11 203.396 256.055 204.614 255.295C206.372 254.187 207.534 252.228 207.534 250.003C207.534 246.551 204.742 243.75 201.29 243.75Z" fill="#E9573F"/>
</g>
<defs>
<clipPath id="clip0_283_178">
<rect width="300" height="300" fill="white"/>
</clipPath>
</defs>
</svg>
