<svg xmlns="http://www.w3.org/2000/svg" width="37" height="37" fill="none"><path fill="#E9E8E8" d="M28.02 33.917c-1.208 0-2.242-.43-3.103-1.291-.86-.861-1.291-1.895-1.291-3.103 0-.18.02-.392.058-.636.038-.244.096-.469.173-.675L12.18 21.43c-.385.437-.86.79-1.426 1.06a3.986 3.986 0 0 1-1.734.405c-1.208 0-2.242-.43-3.103-1.291-.86-.861-1.291-1.895-1.291-3.103 0-1.233.43-2.274 1.291-3.122.86-.848 1.895-1.272 3.103-1.272.59 0 1.156.116 1.696.347.54.231 1.027.565 1.464 1.002L23.857 8.75a2.682 2.682 0 0 1-.173-.617 3.988 3.988 0 0 1-.058-.655c0-1.233.43-2.274 1.291-3.122.861-.848 1.895-1.272 3.103-1.272 1.233 0 2.274.424 3.122 1.272.848.848 1.271 1.889 1.271 3.122 0 1.208-.423 2.242-1.271 3.103-.848.86-1.889 1.29-3.122 1.29a5.17 5.17 0 0 1-1.715-.288 3.291 3.291 0 0 1-1.407-.945L13.22 17.113a7.137 7.137 0 0 1 .192 1.387c0 .18-.019.373-.057.578-.039.206-.084.411-.135.617l11.678 6.629c.385-.36.835-.649 1.349-.867.514-.219 1.105-.328 1.773-.328 1.233 0 2.274.424 3.122 1.272.848.848 1.271 1.889 1.271 3.122 0 1.208-.423 2.242-1.271 3.103-.848.86-1.889 1.29-3.122 1.29Zm0-24.359c.59 0 1.085-.199 1.484-.597.398-.398.597-.893.597-1.484 0-.59-.2-1.086-.597-1.484-.399-.398-.893-.597-1.484-.597s-1.086.199-1.484.597c-.398.398-.598.893-.598 1.484s.2 1.086.598 1.484c.398.398.893.597 1.484.597ZM9.019 20.581c.59 0 1.085-.199 1.484-.597.398-.398.597-.893.597-1.484s-.2-1.086-.597-1.484c-.399-.398-.893-.597-1.484-.597s-1.086.199-1.484.597c-.398.398-.598.893-.598 1.484s.2 1.086.598 1.484c.398.398.893.597 1.484.597Zm19 11.023c.592 0 1.086-.199 1.485-.597.398-.399.597-.893.597-1.484s-.2-1.086-.597-1.484c-.399-.398-.893-.597-1.484-.597s-1.086.199-1.484.597c-.398.398-.598.893-.598 1.484 0 .59.2 1.085.598 1.484.398.398.893.597 1.484.597Z"/></svg>