<svg xmlns="http://www.w3.org/2000/svg" width="54" height="53" fill="none"><g clip-path="url(#a)"><path fill="#E9E8E8" fill-opacity=".8" d="m19.779 21.426 3.568-8.999 9.578-1.41 6.009 7.59-3.568 9-9.578 1.41-6.01-7.59Z"/></g><g clip-path="url(#b)"><path fill="#E9E8E8" fill-opacity=".8" d="m7.587 31.174 3.568-9 9.578-1.409 6.009 7.59-3.568 9-9.578 1.409-6.01-7.59Z"/></g><g clip-path="url(#c)"><path fill="#E9E8E8" fill-opacity=".8" d="m21.987 36.88 3.568-9 9.578-1.41 6.01 7.59-3.569 9-9.577 1.41-6.01-7.59Z"/></g><defs><clipPath id="a"><path fill="#fff" d="M18.37 11.849 37.524 9.03l2.819 19.156-19.156 2.819z"/></clipPath><clipPath id="b"><path fill="#fff" d="m6.177 21.596 19.156-2.819 2.819 19.156-19.156 2.82z"/></clipPath><clipPath id="c"><path fill="#fff" d="m20.578 27.302 19.155-2.819 2.82 19.156-19.156 2.819z"/></clipPath></defs></svg>