<svg xmlns="http://www.w3.org/2000/svg" width="27" height="27" fill="none"><g clip-path="url(#a)" opacity=".8"><path fill="#161414" d="M26.992 0H.008A.008.008 0 0 0 0 .008v26.984c0 .005.004.008.008.008h26.984a.008.008 0 0 0 .008-.008V.008A.008.008 0 0 0 26.992 0Z"/><path fill="#E2E2E2" d="M17.666 26.315c.738 0 .633.896.633.896H8.7s-.105-.896.633-.896c.686 0 .844-.317.844-.633l-.053-2.637c-3.744.844-4.535-1.477-4.535-1.477-.633-1.582-1.477-1.95-1.477-1.95-1.265-.844.053-.844.053-.844 1.371.105 2.11 1.37 2.11 1.37 1.16 2.057 3.11 1.477 3.902 1.16.105-.896.474-1.476.843-1.845-3.005-.316-6.117-1.476-6.117-6.644 0-1.477.528-2.69 1.371-3.64-.158-.315-.58-1.687.159-3.532 0 0 1.107-.37 3.691 1.37a12.237 12.237 0 0 1 6.75 0c2.584-1.74 3.691-1.37 3.691-1.37.739 1.845.317 3.217.159 3.533.843.95 1.37 2.162 1.37 3.639 0 5.168-3.163 6.328-6.17 6.644.528.422.95 1.266.95 2.531l-.053 3.692c0 .316.158.633.844.633Z"/></g><defs><clipPath id="a"><rect width="27" height="27" fill="#fff" rx="2"/></clipPath></defs></svg>