<svg xmlns="http://www.w3.org/2000/svg" width="28" height="27" fill="none"><g clip-path="url(#a)" opacity=".8"><rect width="27" height="27" x=".5" fill="#E2E2E2" rx="2"/><path fill="#161414" fill-rule="evenodd" d="M.5 0v27h27V0H.5Zm22.835 5.975-3.172 15.258a.507.507 0 0 1-.795.307l-4.33-3.144a.716.716 0 0 0-.874.025l-2.4 1.957a.507.507 0 0 1-.806-.242l-1.667-5.362-4.307-1.607a.508.508 0 0 1-.005-.95l17.676-6.82a.508.508 0 0 1 .68.578Z" clip-rule="evenodd"/><path fill="#161414" fill-rule="evenodd" d="m19.107 8.734-8.417 5.184a.848.848 0 0 0-.37.954l.91 3.198c.064.226.393.203.424-.03l.237-1.755a1.44 1.44 0 0 1 .446-.861l6.947-6.458c.13-.12-.026-.325-.177-.232Z" clip-rule="evenodd"/></g><defs><clipPath id="a"><rect width="27" height="27" x=".5" fill="#fff" rx="2"/></clipPath></defs></svg>