<svg xmlns="http://www.w3.org/2000/svg" width="27" height="27" fill="none"><g clip-path="url(#a)" opacity=".8"><rect width="27" height="27" fill="#E2E2E2" rx="2"/><path fill="#161414" fill-rule="evenodd" d="M14.622 12.126v-.04c-.008.014-.02.027-.027.04h.027Z" clip-rule="evenodd"/><path fill="#161414" fill-rule="evenodd" d="M0 0v27h27V0H0Zm8.398 22.431H4.392V10.379h4.006v12.052ZM6.395 8.734H6.37c-1.344 0-2.215-.926-2.215-2.083 0-1.182.896-2.082 2.267-2.082 1.372 0 2.214.9 2.24 2.082 0 1.157-.868 2.083-2.266 2.083Zm16.451 13.697H18.84v-6.448c0-1.62-.579-2.725-2.029-2.725-1.107 0-1.766.745-2.055 1.466-.106.257-.134.615-.134.976v6.731h-4.007s.054-10.921 0-12.052h4.007v1.708c.533-.82 1.483-1.99 3.612-1.99 2.637 0 4.613 1.721 4.613 5.423v6.911Z" clip-rule="evenodd"/></g><defs><clipPath id="a"><rect width="27" height="27" fill="#fff" rx="2"/></clipPath></defs></svg>