<svg width="36" height="36" viewBox="0 0 36 36" fill="none" xmlns="http://www.w3.org/2000/svg">
<path d="M23.5875 20.2875L21.9375 18.6375C22.5875 16.8625 22.25 15.3875 20.925 14.2125C19.6 13.0375 18.1625 12.7375 16.6125 13.3125L14.9625 11.6625C15.3875 11.3875 15.8625 11.1875 16.3875 11.0625C16.9125 10.9375 17.45 10.875 18 10.875C19.775 10.875 21.2812 11.4938 22.5187 12.7313C23.7563 13.9688 24.375 15.475 24.375 17.25C24.375 17.8 24.3062 18.3437 24.1687 18.8812C24.0312 19.4187 23.8375 19.8875 23.5875 20.2875ZM28.425 25.125L26.925 23.625C28.15 22.725 29.2188 21.7188 30.1312 20.6063C31.0437 19.4938 31.7125 18.375 32.1375 17.25C30.8875 14.475 29.0125 12.2812 26.5125 10.6688C24.0125 9.05625 21.3 8.25 18.375 8.25C17.325 8.25 16.25 8.35 15.15 8.55C14.05 8.75 13.1875 8.9875 12.5625 9.2625L10.8375 7.5C11.7125 7.1 12.8312 6.75 14.1937 6.45C15.5562 6.15 16.8875 6 18.1875 6C21.7625 6 25.0312 7.01875 27.9938 9.05625C30.9563 11.0938 33.125 13.825 34.5 17.25C33.85 18.85 33.0125 20.3125 31.9875 21.6375C30.9625 22.9625 29.775 24.125 28.425 25.125ZM30.6 33.6L24.3 27.4125C23.425 27.7625 22.4375 28.0312 21.3375 28.2188C20.2375 28.4062 19.125 28.5 18 28.5C14.35 28.5 11.0375 27.4812 8.0625 25.4437C5.0875 23.4062 2.9 20.675 1.5 17.25C2 15.95 2.69375 14.6812 3.58125 13.4437C4.46875 12.2062 5.55 11.025 6.825 9.9L2.1 5.175L3.675 3.5625L32.0625 31.95L30.6 33.6ZM8.3625 11.475C7.4375 12.15 6.54375 13.0375 5.68125 14.1375C4.81875 15.2375 4.2 16.275 3.825 17.25C5.1 20.025 7.01875 22.2188 9.58125 23.8312C12.1438 25.4438 15.05 26.25 18.3 26.25C19.125 26.25 19.9375 26.2 20.7375 26.1C21.5375 26 22.1375 25.85 22.5375 25.65L20.1375 23.25C19.8625 23.375 19.525 23.4688 19.125 23.5312C18.725 23.5938 18.35 23.625 18 23.625C16.25 23.625 14.75 23.0125 13.5 21.7875C12.25 20.5625 11.625 19.05 11.625 17.25C11.625 16.875 11.6562 16.5 11.7188 16.125C11.7812 15.75 11.875 15.4125 12 15.1125L8.3625 11.475Z" fill="#E9E8E8"/>
</svg>
