<svg width="24" height="24" fill="none" xmlns="http://www.w3.org/2000/svg"><path d="m22.175 9.825-.575-1.25L20.35 8l1.25-.575.575-1.25.575 1.25L24 8l-1.25.575-.575 1.25ZM19 5.45l-.875-1.85-1.85-.875 1.85-.875L19 0l.875 1.85 1.85.875-1.85.875L19 5.45ZM9 22a1.955 1.955 0 0 1-1.438-.587 1.955 1.955 0 0 1-.587-1.438h4.05c0 .567-.196 1.046-.588 1.438-.391.391-.87.587-1.437.587Zm-4.05-3.575v-1.5h8.1v1.5h-8.1Zm.125-3.025c-1.1-.717-1.97-1.613-2.613-2.688-.641-1.075-.962-2.287-.962-3.637 0-2.033.742-3.792 2.225-5.275C5.208 2.317 6.967 1.575 9 1.575c2.033 0 3.792.742 5.275 2.225C15.758 5.283 16.5 7.042 16.5 9.075c0 1.35-.317 2.563-.95 3.638-.633 1.075-1.508 1.97-2.625 2.687h-7.85Zm.55-1.5H12.4a5.826 5.826 0 0 0 1.9-2.075c.467-.85.7-1.767.7-2.75 0-1.65-.588-3.062-1.762-4.237C12.063 3.663 10.65 3.075 9 3.075c-1.65 0-3.063.587-4.237 1.763C3.588 6.013 3 7.425 3 9.075c0 .983.233 1.9.7 2.75A5.746 5.746 0 0 0 5.625 13.9Z" fill="#E9E8E8"/></svg>