<svg width="24" height="24" fill="none" xmlns="http://www.w3.org/2000/svg"><path d="m19.75 9.75-.225-.875a2.813 2.813 0 0 1-.513-.275 2.193 2.193 0 0 1-.437-.375l-1.1.4-.5-.875.875-.7a2.141 2.141 0 0 1-.088-.275 1.233 1.233 0 0 1 0-.6c.025-.1.054-.192.088-.275l-.875-.7.5-.875 1.1.4c.116-.133.262-.263.437-.388s.346-.212.513-.262l.225-.875h.95l.225.875c.166.05.337.137.512.262s.32.255.438.388l1.1-.4.5.875-.875.7c.033.083.062.175.087.275a1.233 1.233 0 0 1 0 .6c-.025.1-.054.192-.087.275l.875.7-.5.875-1.1-.4a2.193 2.193 0 0 1-.438.375 2.813 2.813 0 0 1-.512.275l-.225.875h-.95Zm.475-1.825c.416 0 .762-.138 1.037-.413.275-.275.413-.62.413-1.037 0-.417-.138-.763-.413-1.038-.275-.275-.62-.412-1.037-.412-.417 0-.763.137-1.038.412-.275.275-.412.621-.412 1.038 0 .417.137.762.412 1.037.275.275.62.413 1.038.413Zm-3.175 7.25L17 14.45a6.235 6.235 0 0 1-.363-.225 3.97 3.97 0 0 1-.337-.25l-.65.35-.55-.8.65-.475a.422.422 0 0 1-.05-.188v-.374c0-.059.016-.121.05-.188l-.65-.475.55-.8.65.35.35-.25c.116-.083.233-.158.35-.225l.05-.725h1l.05.725c.116.067.233.142.35.225l.35.25.65-.35.55.8-.65.475c.033.067.05.13.05.188v.375c0 .058-.017.12-.05.187l.65.475-.55.8-.65-.35a3.97 3.97 0 0 1-.338.25 6.235 6.235 0 0 1-.362.225l-.05.725h-1Zm.5-1.55a.918.918 0 0 0 .675-.275.918.918 0 0 0 .275-.675.918.918 0 0 0-.275-.675.917.917 0 0 0-.675-.275.917.917 0 0 0-.675.275.918.918 0 0 0-.275.675c0 .267.091.492.275.675a.918.918 0 0 0 .675.275Zm-8.05-.05c-1.1 0-2-.358-2.7-1.075-.7-.717-1.05-1.608-1.05-2.675H5.5a.48.48 0 0 1-.35-.15.48.48 0 0 1 0-.7c.1-.1.216-.15.35-.15h.25c0-.667.166-1.267.5-1.8a4.036 4.036 0 0 1 1.3-1.3V6.7c0 .1.037.187.112.262a.36.36 0 0 0 .263.113.349.349 0 0 0 .275-.113.383.383 0 0 0 .1-.262V5.4a4.25 4.25 0 0 1 .55-.088 6.34 6.34 0 0 1 .675-.037c.216 0 .441.012.675.037.233.025.416.055.55.088v1.3c0 .1.033.187.1.262a.349.349 0 0 0 .275.113.36.36 0 0 0 .262-.113.36.36 0 0 0 .113-.262v-.975c.533.333.958.767 1.275 1.3.316.533.475 1.133.475 1.8h.25c.133 0 .25.05.35.15a.48.48 0 0 1 0 .7.48.48 0 0 1-.35.15h-.25c0 1.067-.35 1.958-1.05 2.675-.7.717-1.6 1.075-2.7 1.075Zm0-1.5c.7 0 1.25-.208 1.65-.625.4-.417.6-.958.6-1.625h-4.5c0 .667.2 1.208.6 1.625.4.417.95.625 1.65.625ZM1.6 21.2v-2.3c0-.567.133-1.037.4-1.412.266-.375.641-.68 1.125-.913.9-.433 1.862-.792 2.887-1.075 1.025-.283 2.188-.425 3.488-.425 1.3 0 2.462.142 3.487.425 1.025.283 1.988.642 2.888 1.075.483.233.858.538 1.125.913.266.375.4.845.4 1.412v2.3H1.6Zm1.5-1.5h12.8v-.8c0-.25-.071-.454-.213-.612a1.4 1.4 0 0 0-.512-.363 26.55 26.55 0 0 0-2.4-.913c-.884-.291-1.975-.437-3.275-.437-1.3 0-2.392.146-3.275.438-.884.291-1.684.595-2.4.912a1.4 1.4 0 0 0-.513.363c-.142.158-.212.362-.212.612v.8Z" fill="#E9E8E8"/></svg>