<svg width="24" height="24" fill="none" xmlns="http://www.w3.org/2000/svg"><path d="M12 16.55c1.733-1.4 3.042-2.746 3.925-4.038.883-1.291 1.325-2.495 1.325-3.612 0-.983-.18-1.817-.538-2.5-.358-.683-.8-1.242-1.325-1.675a5.01 5.01 0 0 0-1.712-.937C13.058 3.595 12.5 3.5 12 3.5s-1.058.096-1.675.288a5.01 5.01 0 0 0-1.712.937c-.525.433-.967.992-1.325 1.675-.359.683-.538 1.517-.538 2.5 0 1.117.442 2.32 1.325 3.612.883 1.292 2.192 2.638 3.925 4.038Zm0 1.9c-2.283-1.717-3.98-3.358-5.088-4.925C5.804 11.958 5.25 10.417 5.25 8.9c0-1.133.204-2.13.612-2.988A6.773 6.773 0 0 1 7.45 3.75a6.635 6.635 0 0 1 2.175-1.313A6.9 6.9 0 0 1 12 2a6.9 6.9 0 0 1 2.375.438c.8.291 1.525.729 2.175 1.312a6.773 6.773 0 0 1 1.587 2.162c.409.859.613 1.855.613 2.988 0 1.517-.554 3.058-1.663 4.625-1.108 1.567-2.804 3.208-5.087 4.925Zm0-7.95c.483 0 .896-.17 1.238-.512.341-.342.512-.755.512-1.238s-.17-.896-.512-1.237A1.686 1.686 0 0 0 12 7c-.483 0-.896.17-1.238.513a1.686 1.686 0 0 0-.512 1.237c0 .483.17.896.512 1.238.342.341.755.512 1.238.512ZM5.25 22v-1.5h13.5V22H5.25Z" fill="#E9E8E8"/></svg>