<svg width="24" height="24" fill="none" xmlns="http://www.w3.org/2000/svg"><path d="m4.675 10.225 2.65 1.125c.3-.6.62-1.192.962-1.775.342-.583.705-1.142 1.088-1.675L7.4 7.5l-2.725 2.725Zm3.85 2.025 3.325 3.325c.95-.433 1.842-.925 2.675-1.475.833-.55 1.508-1.083 2.025-1.6 1.35-1.35 2.342-2.733 2.975-4.15.633-1.417.975-3.017 1.025-4.8-1.783.05-3.383.392-4.8 1.025-1.417.633-2.8 1.625-4.15 2.975-.517.517-1.05 1.192-1.6 2.025a19.652 19.652 0 0 0-1.475 2.675Zm5.725-2.4a1.68 1.68 0 0 1-.5-1.238c0-.491.167-.904.5-1.237a1.68 1.68 0 0 1 1.238-.5c.491 0 .904.167 1.237.5.333.333.5.746.5 1.237 0 .492-.167.905-.5 1.238a1.68 1.68 0 0 1-1.238.5 1.68 1.68 0 0 1-1.237-.5Zm-.375 9.575L16.6 16.7l-.4-1.975c-.533.383-1.092.746-1.675 1.087-.583.342-1.175.663-1.775.963l1.125 2.65Zm8.15-17.35c.15 2.267-.133 4.333-.85 6.2s-1.9 3.625-3.55 5.275l-.05.05-.05.05.55 2.75c.05.25.038.492-.037.725a1.544 1.544 0 0 1-.388.625l-4.275 4.3-2.125-4.95L7 12.85l-4.95-2.125 4.3-4.275c.183-.183.392-.313.625-.388.233-.075.475-.087.725-.037l2.75.55a.196.196 0 0 1 .05-.038.196.196 0 0 0 .05-.037c1.65-1.65 3.408-2.838 5.275-3.563 1.867-.725 3.933-1.012 6.2-.862Zm-18.3 13.8c.583-.583 1.296-.88 2.137-.888.842-.008 1.555.28 2.138.863s.87 1.296.863 2.137c-.009.842-.305 1.555-.888 2.138-.433.433-1.104.792-2.012 1.075-.909.283-2.271.55-4.088.8.25-1.817.513-3.183.788-4.1.275-.917.629-1.592 1.062-2.025Zm1.05 1.075c-.233.25-.442.642-.625 1.175s-.342 1.217-.475 2.05c.833-.133 1.517-.292 2.05-.475.533-.183.925-.392 1.175-.625.317-.283.48-.638.487-1.063A1.52 1.52 0 0 0 6.95 16.9a1.52 1.52 0 0 0-1.112-.438c-.426.009-.78.171-1.063.488Z" fill="#E9E8E8"/></svg>