<svg width="73" height="71" viewBox="0 0 73 71" fill="none" xmlns="http://www.w3.org/2000/svg">
<path d="M33.5895 71C28.9095 70.763 24.5257 69.6671 20.438 67.7121C16.3504 65.7572 12.796 63.195 9.77472 60.0257C6.75344 56.8563 4.369 53.1685 2.6214 48.9624C0.8738 44.7564 0 40.2837 0 35.5444C0 30.6274 0.933041 26.0067 2.79912 21.6821C4.66521 17.3575 7.19775 13.5957 10.3967 10.3967C13.5957 7.19775 17.3575 4.66521 21.6821 2.79912C26.0067 0.933041 30.6274 0 35.5444 0C44.3713 0 52.043 2.78431 58.5594 8.35294C65.0759 13.9216 69.0747 20.912 70.5557 29.3242H65.1352C64.1281 24.3479 62.025 19.9049 58.826 15.995C55.627 12.0851 51.6283 9.15269 46.8298 7.19775V8.79725C46.8298 10.8707 46.1189 12.6775 44.6971 14.2178C43.2753 15.758 41.5277 16.5282 39.4543 16.5282H31.7234V24.2591C31.7234 25.2662 31.3235 26.0955 30.5238 26.7472C29.724 27.3988 28.8206 27.7247 27.8135 27.7247H20.438V35.5444H30.2128V46.6521H24.2591L6.13141 28.5244C5.83521 29.7092 5.62787 30.8792 5.50939 32.0344C5.3909 33.1896 5.33166 34.3596 5.33166 35.5444C5.33166 43.5419 8.02712 50.4435 13.418 56.2491C18.8089 62.0547 25.5327 65.1944 33.5895 65.6683V71ZM68.423 68.6896L56.5156 56.7822C55.2716 57.6708 53.9239 58.3521 52.4725 58.826C51.0211 59.3 49.5252 59.5369 47.985 59.5369C43.7789 59.5369 40.2096 58.0707 37.2772 55.1383C34.3448 52.2059 32.8786 48.6366 32.8786 44.4305C32.8786 40.2244 34.3448 36.6552 37.2772 33.7228C40.2096 30.7904 43.7789 29.3242 47.985 29.3242C52.1911 29.3242 55.7603 30.7904 58.6927 33.7228C61.6252 36.6552 63.0914 40.2244 63.0914 44.4305C63.0914 45.9708 62.8396 47.4666 62.336 48.918C61.8325 50.3694 61.166 51.7468 60.3367 53.0501L72.244 64.8686L68.423 68.6896ZM47.985 54.2053C50.71 54.2053 53.0204 53.2574 54.9161 51.3617C56.8118 49.466 57.7597 47.1556 57.7597 44.4305C57.7597 41.7055 56.8118 39.3951 54.9161 37.4994C53.0204 35.6037 50.71 34.6558 47.985 34.6558C45.2599 34.6558 42.9495 35.6037 41.0538 37.4994C39.1581 39.3951 38.2103 41.7055 38.2103 44.4305C38.2103 47.1556 39.1581 49.466 41.0538 51.3617C42.9495 53.2574 45.2599 54.2053 47.985 54.2053Z" fill="url(#paint0_linear_83_51)" fill-opacity="0.8"/>
<defs>
<linearGradient id="paint0_linear_83_51" x1="36.122" y1="0" x2="36.122" y2="71" gradientUnits="userSpaceOnUse">
<stop stop-color="#FDA916"/>
<stop offset="1" stop-color="#E9E8E8"/>
</linearGradient>
</defs>
</svg>
