<svg width="30" height="30" viewBox="0 0 30 30" fill="none" xmlns="http://www.w3.org/2000/svg">
<path d="M5.84375 12.7812L9.15625 14.1875C9.53125 13.4375 9.93229 12.6979 10.3594 11.9687C10.7865 11.2396 11.2396 10.5417 11.7188 9.875L9.25 9.375L5.84375 12.7812ZM10.6562 15.3125L14.8125 19.4687C16 18.9271 17.1146 18.3125 18.1562 17.625C19.1979 16.9375 20.0417 16.2708 20.6875 15.625C22.375 13.9375 23.6146 12.2083 24.4062 10.4375C25.1979 8.66666 25.625 6.66666 25.6875 4.4375C23.4583 4.5 21.4583 4.92708 19.6875 5.71875C17.9167 6.51041 16.1875 7.75 14.5 9.4375C13.8542 10.0833 13.1875 10.9271 12.5 11.9687C11.8125 13.0104 11.1979 14.125 10.6562 15.3125ZM17.8125 12.3125C17.3958 11.8958 17.1875 11.3802 17.1875 10.7656C17.1875 10.151 17.3958 9.63541 17.8125 9.21875C18.2292 8.80208 18.7448 8.59375 19.3594 8.59375C19.974 8.59375 20.4896 8.80208 20.9062 9.21875C21.3229 9.63541 21.5312 10.151 21.5312 10.7656C21.5312 11.3802 21.3229 11.8958 20.9062 12.3125C20.4896 12.7292 19.974 12.9375 19.3594 12.9375C18.7448 12.9375 18.2292 12.7292 17.8125 12.3125ZM17.3438 24.2812L20.75 20.875L20.25 18.4062C19.5833 18.8854 18.8854 19.3385 18.1562 19.7656C17.4271 20.1927 16.6875 20.5937 15.9375 20.9687L17.3438 24.2812ZM27.5312 2.59375C27.7188 5.42708 27.3646 8.01041 26.4688 10.3437C25.5729 12.6771 24.0938 14.875 22.0312 16.9375L21.9688 17L21.9062 17.0625L22.5938 20.5C22.6563 20.8125 22.6406 21.1146 22.5469 21.4062C22.4531 21.6979 22.2917 21.9583 22.0625 22.1875L16.7188 27.5625L14.0625 21.375L8.75 16.0625L2.5625 13.4062L7.9375 8.0625C8.16667 7.83333 8.42708 7.67187 8.71875 7.57812C9.01042 7.48437 9.3125 7.46875 9.625 7.53125L13.0625 8.21875C13.0833 8.19791 13.1042 8.18229 13.125 8.17187C13.1458 8.16145 13.1667 8.14583 13.1875 8.125C15.25 6.0625 17.4479 4.57812 19.7812 3.67187C22.1146 2.76562 24.6979 2.40625 27.5312 2.59375ZM4.65625 19.8437C5.38542 19.1146 6.27604 18.7448 7.32812 18.7344C8.38021 18.724 9.27083 19.0833 10 19.8125C10.7292 20.5417 11.0885 21.4323 11.0781 22.4844C11.0677 23.5365 10.6979 24.4271 9.96875 25.1562C9.42708 25.6979 8.58854 26.1458 7.45312 26.5C6.31771 26.8542 4.61458 27.1875 2.34375 27.5C2.65625 25.2292 2.98437 23.5208 3.32812 22.375C3.67187 21.2292 4.11458 20.3854 4.65625 19.8437ZM5.96875 21.1875C5.67708 21.5 5.41667 21.9896 5.1875 22.6562C4.95833 23.3229 4.76042 24.1771 4.59375 25.2187C5.63542 25.0521 6.48958 24.8542 7.15625 24.625C7.82292 24.3958 8.3125 24.1354 8.625 23.8437C9.02083 23.4896 9.22396 23.0469 9.23438 22.5156C9.24479 21.9844 9.0625 21.5208 8.6875 21.125C8.29167 20.75 7.82812 20.5677 7.29688 20.5781C6.76562 20.5885 6.32292 20.7917 5.96875 21.1875Z" fill="#FDA916"/>
</svg>
